<?xml version="1.0" encoding="UTF-8" standalone="no"?>
<!-- Creator: fig2dev Version 3.2.9 -->
<!-- CreationDate: 2024-10-26 21:32:11 -->
<!-- Magnification: 1 -->
<svg	xmlns="http://www.w3.org/2000/svg"
	xmlns:xlink="http://www.w3.org/1999/xlink"
	width="330pt" height="330pt"
	viewBox="855 855 5490 5490">
<g fill="none">
<!-- Circle -->
<circle cx="3600" cy="3600" r="2737" fill="#008f00"
	stroke="#008f00" stroke-width="8px"/>
<!-- Line -->
<polyline points=" 3375,4275 3374,4278 3372,4284 3368,4294 3362,4310 3355,4332 3345,4359 3335,4390
 3323,4425 3310,4462 3298,4499 3286,4536 3274,4573 3263,4608 3253,4641 3244,4673
 3235,4702 3228,4730 3222,4756 3216,4781 3211,4805 3207,4829 3203,4852 3200,4875
 3197,4900 3195,4925 3193,4951 3192,4977 3191,5003 3191,5030 3192,5057 3193,5084
 3195,5112 3198,5139 3201,5166 3205,5193 3210,5219 3215,5245 3221,5269 3227,5293
 3234,5315 3241,5337 3249,5357 3257,5377 3266,5395 3275,5413 3286,5431 3297,5449
 3309,5466 3323,5483 3337,5499 3352,5514 3368,5529 3384,5543 3402,5556 3419,5568
 3438,5579 3456,5589 3475,5598 3493,5605 3512,5612 3530,5617 3548,5620 3565,5623
 3583,5624 3600,5625 3617,5624 3635,5623 3652,5620 3670,5617 3688,5612 3707,5605
 3725,5598 3744,5589 3762,5579 3781,5568 3798,5556 3816,5543 3832,5529 3848,5514
 3863,5499 3877,5483 3891,5466 3903,5449 3914,5431 3925,5413 3934,5395 3943,5377
 3951,5357 3959,5337 3966,5315 3973,5293 3979,5269 3985,5245 3990,5219 3995,5193
 3999,5166 4002,5139 4005,5112 4007,5084 4008,5057 4009,5030 4009,5003 4008,4977
 4007,4951 4005,4925 4003,4900 4000,4875 3997,4852 3993,4829 3989,4805 3984,4781
 3978,4756 3972,4730 3965,4702 3956,4673 3947,4641 3937,4608 3926,4573 3914,4536
 3902,4499 3890,4462 3877,4425 3865,4390 3855,4359 3845,4332 3838,4310 3832,4294
 3828,4284 3826,4278 3825,4275" fill="#ffffff"
	stroke="#000000" stroke-width="30px" stroke-linejoin="bevel"/>
<!-- Line -->
<polyline points=" 3900,4275 3901,4278 3904,4283 3909,4293 3916,4309 3926,4330 3938,4355 3953,4385
 3969,4418 3986,4453 4004,4488 4022,4523 4039,4557 4056,4590 4072,4620 4088,4649
 4103,4676 4118,4700 4132,4724 4145,4745 4159,4766 4173,4785 4186,4804 4200,4823
 4216,4843 4232,4862 4249,4881 4267,4901 4285,4920 4304,4939 4323,4957 4344,4976
 4364,4994 4386,5011 4407,5028 4429,5044 4451,5059 4472,5074 4494,5087 4515,5099
 4536,5110 4556,5121 4576,5129 4595,5137 4614,5144 4633,5150 4654,5156 4675,5160
 4696,5164 4717,5166 4738,5168 4760,5168 4781,5168 4803,5166 4825,5163 4846,5159
 4867,5153 4887,5147 4906,5140 4924,5132 4942,5124 4958,5114 4974,5104 4988,5094
 5001,5083 5014,5071 5026,5058 5037,5045 5047,5031 5057,5015 5067,4999 5075,4981
 5083,4963 5090,4944 5096,4924 5102,4903 5106,4882 5109,4860 5111,4838 5111,4817
 5111,4795 5110,4774 5107,4753 5104,4732 5099,4711 5094,4690 5088,4671 5081,4652
 5073,4633 5064,4613 5054,4593 5043,4572 5030,4551 5017,4529 5003,4508 4988,4486
 4972,4464 4955,4443 4937,4421 4919,4401 4901,4380 4882,4361 4863,4342 4844,4324
 4825,4306 4806,4289 4786,4273 4767,4257 4748,4243 4729,4230 4710,4216 4689,4202
 4667,4189 4644,4175 4619,4160 4592,4145 4564,4129 4533,4113 4501,4096 4466,4079
 4431,4061 4396,4043 4361,4026 4328,4010 4298,3995 4273,3983 4252,3973 4236,3966
 4226,3961 4221,3958 4218,3957" fill="#ffffff"
	stroke="#000000" stroke-width="30px" stroke-linejoin="bevel"/>
<!-- Line -->
<polyline points=" 4274,3450 4277,3449 4283,3447 4293,3443 4309,3437 4331,3430 4358,3420 4389,3410
 4424,3398 4461,3385 4498,3373 4535,3361 4572,3349 4607,3338 4640,3328 4672,3319
 4701,3310 4729,3303 4755,3296 4780,3291 4804,3286 4828,3282 4851,3278 4874,3275
 4899,3272 4924,3270 4950,3268 4976,3267 5002,3266 5029,3266 5056,3267 5083,3268
 5111,3270 5138,3273 5165,3276 5192,3280 5218,3284 5244,3290 5268,3295 5292,3302
 5314,3308 5336,3316 5356,3323 5376,3332 5394,3340 5412,3349 5430,3360 5448,3371
 5465,3384 5482,3397 5498,3411 5514,3426 5529,3442 5543,3459 5556,3476 5568,3494
 5579,3512 5589,3531 5598,3549 5605,3568 5611,3586 5616,3605 5620,3623 5623,3640
 5624,3658 5625,3675 5624,3692 5623,3709 5620,3727 5616,3745 5611,3763 5605,3782
 5598,3800 5589,3819 5579,3837 5568,3856 5556,3873 5543,3891 5529,3907 5514,3923
 5498,3938 5482,3952 5465,3966 5448,3978 5430,3989 5412,4000 5394,4009 5376,4018
 5357,4026 5336,4034 5315,4041 5292,4048 5269,4054 5244,4060 5219,4065 5193,4070
 5166,4074 5139,4077 5111,4080 5084,4082 5057,4083 5029,4084 5003,4084 4976,4083
 4950,4082 4925,4080 4900,4078 4875,4075 4852,4072 4829,4068 4805,4064 4781,4059
 4756,4053 4729,4047 4702,4040 4672,4031 4641,4022 4607,4012 4572,4001 4536,3989
 4498,3977 4461,3965 4424,3952 4389,3940 4358,3930 4331,3920 4309,3913 4293,3907
 4283,3903 4277,3901 4274,3900" fill="#ffffff"
	stroke="#000000" stroke-width="30px" stroke-linejoin="bevel"/>
<!-- Line -->
<polyline points=" 3935,2983 3936,2980 3939,2975 3944,2965 3951,2949 3961,2928 3973,2903 3988,2873
 4004,2840 4021,2805 4039,2770 4057,2735 4074,2701 4091,2668 4107,2638 4123,2609
 4138,2582 4153,2558 4167,2534 4180,2513 4194,2492 4208,2473 4221,2454 4235,2435
 4251,2415 4267,2396 4284,2377 4302,2357 4320,2338 4339,2319 4358,2301 4379,2282
 4399,2264 4421,2247 4442,2230 4464,2214 4486,2199 4507,2184 4529,2171 4550,2159
 4571,2148 4591,2137 4611,2129 4630,2121 4649,2114 4668,2108 4689,2102 4710,2098
 4731,2094 4752,2092 4773,2090 4795,2090 4816,2090 4838,2092 4860,2095 4881,2099
 4902,2105 4922,2111 4941,2118 4959,2126 4977,2134 4993,2144 5009,2154 5023,2164
 5036,2175 5049,2187 5061,2200 5072,2213 5082,2227 5092,2243 5102,2259 5110,2277
 5118,2295 5125,2314 5131,2334 5137,2355 5141,2376 5144,2398 5146,2420 5146,2441
 5146,2463 5145,2484 5142,2505 5139,2526 5134,2547 5129,2568 5123,2587 5116,2606
 5108,2625 5099,2645 5089,2665 5078,2686 5065,2707 5052,2729 5038,2750 5023,2772
 5007,2794 4990,2815 4972,2837 4954,2857 4936,2878 4917,2897 4898,2916 4879,2934
 4860,2952 4841,2969 4821,2985 4802,3001 4783,3015 4764,3028 4745,3042 4724,3056
 4702,3069 4679,3083 4654,3098 4627,3113 4599,3129 4568,3145 4536,3162 4501,3179
 4466,3197 4431,3215 4396,3232 4363,3248 4333,3263 4308,3275 4287,3285 4271,3292
 4261,3297 4256,3300 4253,3301" fill="#ffffff"
	stroke="#000000" stroke-width="30px" stroke-linejoin="bevel"/>
<!-- Line -->
<polyline points=" 3375,2925 3374,2922 3372,2916 3368,2906 3362,2890 3355,2868 3345,2841 3335,2810
 3323,2775 3310,2738 3298,2701 3286,2664 3274,2627 3263,2592 3253,2559 3244,2527
 3235,2498 3228,2470 3222,2444 3216,2419 3211,2395 3207,2371 3203,2348 3200,2325
 3197,2300 3195,2275 3193,2249 3192,2223 3191,2197 3191,2170 3192,2143 3193,2116
 3195,2088 3198,2061 3201,2034 3205,2007 3210,1981 3215,1955 3221,1931 3227,1907
 3234,1885 3241,1863 3249,1843 3257,1823 3266,1805 3275,1788 3286,1769 3297,1751
 3309,1734 3323,1717 3337,1701 3352,1686 3368,1671 3384,1657 3402,1644 3419,1632
 3438,1621 3456,1611 3475,1602 3493,1595 3512,1588 3530,1583 3548,1580 3565,1577
 3583,1576 3600,1575 3617,1576 3635,1577 3652,1580 3670,1583 3688,1588 3707,1595
 3725,1602 3744,1611 3762,1621 3781,1632 3798,1644 3816,1657 3832,1671 3848,1686
 3863,1701 3877,1717 3891,1734 3903,1751 3914,1769 3925,1788 3934,1805 3943,1823
 3951,1843 3959,1863 3966,1885 3973,1907 3979,1931 3985,1955 3990,1981 3995,2007
 3999,2034 4002,2061 4005,2088 4007,2116 4008,2143 4009,2170 4009,2197 4008,2223
 4007,2249 4005,2275 4003,2300 4000,2325 3997,2348 3993,2371 3989,2395 3984,2419
 3978,2444 3972,2470 3965,2498 3956,2527 3947,2559 3937,2592 3926,2627 3914,2664
 3902,2701 3890,2738 3877,2775 3865,2810 3855,2841 3845,2868 3838,2890 3832,2906
 3828,2916 3826,2922 3825,2925" fill="#ffffff"
	stroke="#000000" stroke-width="30px" stroke-linejoin="bevel"/>
<!-- Line -->
<polyline points=" 3265,3058 3264,3055 3261,3050 3256,3040 3249,3024 3239,3003 3227,2978 3212,2948
 3196,2915 3179,2880 3161,2845 3143,2810 3126,2776 3109,2743 3093,2713 3077,2684
 3062,2657 3047,2633 3033,2609 3020,2588 3006,2567 2992,2548 2979,2529 2965,2510
 2949,2490 2933,2471 2916,2452 2898,2432 2880,2413 2861,2394 2842,2376 2821,2357
 2801,2339 2779,2322 2758,2305 2736,2289 2714,2274 2693,2259 2671,2246 2650,2234
 2629,2223 2609,2212 2589,2204 2570,2196 2551,2189 2532,2183 2511,2177 2490,2173
 2469,2169 2448,2167 2427,2165 2405,2165 2384,2165 2362,2167 2340,2170 2319,2174
 2298,2180 2278,2186 2259,2193 2241,2201 2223,2209 2207,2219 2191,2229 2177,2239
 2164,2250 2151,2262 2139,2275 2128,2288 2118,2302 2108,2318 2098,2334 2090,2352
 2082,2370 2075,2389 2069,2409 2063,2430 2059,2451 2056,2473 2054,2495 2054,2516
 2054,2538 2055,2559 2058,2580 2061,2601 2066,2622 2072,2643 2077,2662 2084,2681
 2092,2700 2101,2720 2111,2740 2122,2761 2135,2782 2148,2804 2162,2825 2177,2847
 2193,2869 2210,2890 2228,2912 2246,2932 2264,2953 2283,2972 2302,2991 2321,3009
 2340,3027 2359,3044 2379,3060 2399,3076 2417,3090 2436,3103 2455,3117 2476,3131
 2498,3144 2521,3158 2546,3173 2573,3188 2601,3204 2632,3220 2664,3237 2699,3254
 2734,3272 2769,3290 2804,3307 2837,3323 2867,3338 2892,3350 2913,3360 2929,3367
 2939,3372 2944,3375 2947,3376" fill="#ffffff"
	stroke="#000000" stroke-width="30px" stroke-linejoin="bevel"/>
<!-- Line -->
<polyline points=" 2925,3450 2922,3449 2916,3447 2906,3443 2890,3437 2868,3430 2841,3420 2810,3410
 2775,3398 2738,3385 2701,3373 2664,3361 2627,3349 2592,3338 2559,3328 2527,3319
 2498,3310 2470,3303 2444,3296 2419,3291 2395,3286 2371,3282 2348,3278 2325,3275
 2300,3272 2275,3270 2249,3268 2223,3267 2197,3266 2170,3266 2143,3267 2116,3268
 2088,3270 2061,3273 2034,3276 2007,3280 1981,3284 1955,3290 1931,3295 1907,3302
 1885,3308 1863,3316 1843,3323 1823,3332 1805,3340 1787,3349 1769,3360 1751,3371
 1734,3384 1717,3397 1701,3411 1685,3426 1670,3442 1656,3459 1643,3476 1631,3494
 1620,3512 1610,3531 1601,3549 1594,3568 1588,3586 1583,3605 1579,3623 1576,3640
 1575,3658 1574,3675 1575,3692 1576,3709 1579,3727 1583,3745 1588,3763 1594,3782
 1601,3800 1610,3819 1620,3837 1631,3856 1643,3873 1656,3891 1670,3907 1685,3923
 1701,3938 1717,3952 1734,3966 1751,3978 1769,3989 1787,4000 1805,4009 1823,4018
 1842,4026 1863,4034 1884,4041 1907,4048 1930,4054 1955,4060 1980,4065 2006,4070
 2033,4074 2060,4077 2088,4080 2115,4082 2142,4083 2170,4084 2196,4084 2223,4083
 2249,4082 2274,4080 2299,4078 2324,4075 2347,4072 2370,4068 2394,4064 2418,4059
 2443,4053 2470,4047 2497,4040 2527,4031 2558,4022 2592,4012 2627,4001 2663,3989
 2701,3977 2738,3965 2775,3952 2810,3940 2841,3930 2868,3920 2890,3913 2906,3907
 2916,3903 2922,3901 2925,3900" fill="#ffffff"
	stroke="#000000" stroke-width="30px" stroke-linejoin="bevel"/>
<!-- Line -->
<polyline points=" 3340,4292 3339,4295 3336,4300 3331,4310 3324,4326 3314,4347 3302,4372 3287,4402
 3271,4435 3254,4470 3236,4505 3218,4540 3201,4574 3184,4607 3168,4637 3152,4666
 3137,4693 3122,4717 3108,4741 3095,4762 3081,4783 3067,4802 3054,4821 3040,4840
 3024,4860 3008,4879 2991,4898 2973,4918 2955,4937 2936,4956 2917,4974 2896,4993
 2876,5011 2854,5028 2833,5045 2811,5061 2789,5076 2768,5091 2746,5104 2725,5116
 2704,5127 2684,5138 2664,5146 2645,5154 2626,5161 2607,5167 2586,5173 2565,5177
 2544,5181 2523,5183 2502,5185 2480,5185 2459,5185 2437,5183 2415,5180 2394,5176
 2373,5170 2353,5164 2334,5157 2316,5149 2298,5141 2282,5131 2266,5121 2252,5111
 2239,5100 2226,5088 2214,5075 2203,5062 2193,5048 2183,5032 2173,5016 2165,4998
 2157,4980 2150,4961 2144,4941 2138,4920 2134,4899 2131,4877 2129,4855 2129,4834
 2129,4812 2130,4791 2133,4770 2136,4749 2141,4728 2147,4707 2152,4688 2159,4669
 2167,4650 2176,4630 2186,4610 2197,4589 2210,4568 2223,4546 2237,4525 2252,4503
 2268,4481 2285,4460 2303,4438 2321,4418 2339,4397 2358,4378 2377,4359 2396,4341
 2415,4323 2434,4306 2454,4290 2474,4274 2492,4260 2511,4247 2530,4233 2551,4219
 2573,4206 2596,4192 2621,4177 2648,4162 2676,4146 2707,4130 2739,4113 2774,4096
 2809,4078 2844,4060 2879,4043 2912,4027 2942,4012 2967,4000 2988,3990 3004,3983
 3014,3978 3019,3975 3022,3974" fill="#ffffff"
	stroke="#000000" stroke-width="30px" stroke-linejoin="bevel"/>
<!-- Circle -->
<circle cx="3600" cy="3600" r="765" fill="#ffd600"
	stroke="#000000" stroke-width="30px"/>
</g>
</svg>
